# xmcd CD database file
#
# Track frame offsets:
#	150
#	15057
#	46313
#	76016
#	101536
#	113510
#	135710
#	150485
#	177600
#	195746
#
# Disc length: 3229 seconds
#
# Revision: 2
# Processed by: cddbd v1.5.2PL0 Copyright (c) Steve Scherf et al.
# Submitted via: CDex 1.70beta2
#
DISCID=6b0c9b0a
DTITLE=Michael Manring and Cyril Achard - A Place In Time
DYEAR=2008
DGENRE=Jazz
TTITLE0=En Chinga
TTITLE1=Contemplation
TTITLE2=Baku
TTITLE3=Once I Loved
TTITLE4=I Left My Heart In San Francisco
TTITLE5=She Sleeps
TTITLE6=Listen To Me
TTITLE7=Loin d´ici
TTITLE8=Some Day My Prince Will Come
TTITLE9=Summertime
EXTD=YEAR: 2008
EXTT0=
EXTT1=
EXTT2=
EXTT3=
EXTT4=
EXTT5=
EXTT6=
EXTT7=
EXTT8=
EXTT9=
PLAYORDER=
